HIERARCHY
ROOT Hips
{
  OFFSET 62.8137 94.6582 17.6488
  CHANNELS 6 Xposition Yposition Zposition Zrotation Xrotation Yrotation
  JOINT ToSpine
  {
    OFFSET -2.69724 7.43032 -0.144315
    CHANNELS 3 Zrotation Xrotation Yrotation
    JOINT Spine
    {
      OFFSET -0.0310711 10.7595 1.96963
      CHANNELS 3 Zrotation Xrotation Yrotation
      JOINT Spine1
      {
        OFFSET 13.1342 3.43533 0.764692
        CHANNELS 3 Zrotation Xrotation Yrotation
        JOINT Neck
        {
          OFFSET 29.8703 7.82586 -0.130764
          CHANNELS 3 Zrotation Xrotation Yrotation
          JOINT Head
          {
            OFFSET 9.52751 0.295786 -0.907742
            CHANNELS 3 Zrotation Xrotation Yrotation
            End Site
            {
              OFFSET 16.4037 0.713936 2.7358
            }
          }
        }
        JOINT LeftShoulder
        {
          OFFSET 27.5574 4.95586 2.47156
          CHANNELS 3 Zrotation Xrotation Yrotation
          JOINT LeftArm
          {
            OFFSET 1.20734 -0.998971 20.1238
            CHANNELS 3 Zrotation Xrotation Yrotation
            JOINT LeftForeArm
            {
              OFFSET 26.8049 -0.0536703 -0.155908
              CHANNELS 3 Zrotation Xrotation Yrotation
              JOINT LeftHand
              {
                OFFSET 26.6817 0 0.320147
                CHANNELS 3 Zrotation Xrotation Yrotation
                End Site
                {
                  OFFSET 18.6119 0 0.382219
                }
              }
            }
          }
        }
        JOINT RightShoulder
        {
          OFFSET 27.5927 4.71444 -2.65209
          CHANNELS 3 Zrotation Xrotation Yrotation
          JOINT RightArm
          {
            OFFSET 2.83739 -1.17114 -18.7564
            CHANNELS 3 Zrotation Xrotation Yrotation
            JOINT RightForeArm
            {
              OFFSET 28.839 -0.0548439 1.22491
              CHANNELS 3 Zrotation Xrotation Yrotation
              JOINT RightHand
              {
                OFFSET 26.5114 0 -0.101894
                CHANNELS 3 Zrotation Xrotation Yrotation
                End Site
                {
                  OFFSET 18.2168 0 0
                }
              }
            }
          }
        }
      }
    }
  }
  JOINT LeftUpLeg
  {
    OFFSET -4.76168 -1.9167 -10.2353
    CHANNELS 3 Zrotation Xrotation Yrotation
    JOINT LeftLeg
    {
      OFFSET 2.55951 -42.0585 -8.02213
      CHANNELS 3 Zrotation Xrotation Yrotation
      JOINT LeftFoot
      {
        OFFSET 3.16357 -42.5282 -3.95426
        CHANNELS 3 Zrotation Xrotation Yrotation
        JOINT LeftToeBase
        {
          OFFSET 0.346054 -6.02161 12.8035
          CHANNELS 3 Zrotation Xrotation Yrotation
          End Site
          {
            OFFSET 0.134235 -1.35082 5.13018
          }
        }
      }
    }
  }
  JOINT RightUpLeg
  {
    OFFSET -4.94151 -1.41743 10.6446
    CHANNELS 3 Zrotation Xrotation Yrotation
    JOINT RightLeg
    {
      OFFSET -2.56294 -42.0364 -7.94377
      CHANNELS 3 Zrotation Xrotation Yrotation
      JOINT RightFoot
      {
        OFFSET -3.0952 -42.555 -4.02241
        CHANNELS 3 Zrotation Xrotation Yrotation
        JOINT RightToeBase
        {
          OFFSET -0.0828122 -6.13587 12.8035
          CHANNELS 3 Zrotation Xrotation Yrotation
          End Site
          {
            OFFSET -0.131328 -1.35082 5.13018
          }
        }
      }
    }
  }
}
MOTION
Frames:	13
Frame Time:	0.0333333
58.8291 90.901 8.53426 -46.1478 -63.913 -132.292 -70.1915 0 88.8779 70.9462 77.8455 26.2222 -2.72301 30.8257 -3.25542 -133.848 16.9033 168.633 -149.932 56.1388 177.926 0.837189 -11.2322 -31.6761 -119.947 21.8632 -31.2682 13.435 9.28816 -55.4933 0.420957 0.000575395 0.35866 -0.0284539 4.1794 16.5017 -69.9141 -44.8627 143.407 34.6875 3.92284 95.3613 0.58676 0.000331183 0.0646652 -23.0411 23.8513 106.641 -1.07609 54.7297 13.2084 3.63764 -4.84297 -0.796313 0.534084 0.82014 -4.60367 -70.5889 -2.52982 74.2909 3.71 29.2913 -0.702291 -20.1052 0.570503 2.82404 -1.01951 -39.1139 -29.7941 
59.3295 90.743 10.6053 -37.7219 -70.0385 -121.614 -70.1915 0 88.8779 77.585 79.358 19.5158 -3.84663 32.6016 -5.08741 -129.324 17.3121 160.061 -148.255 58.7 176.395 1.23387 -9.13441 -28.6722 -118.671 23.083 -30.024 14.4149 9.45652 -56.9228 0.420957 0.000575395 0.35866 0.11028 4.12892 13.2364 -78.6476 -47.0329 132.866 23.5 0.10814 90.2312 0.58676 0.000331183 0.0646652 -25.1285 19.5912 103.125 -1.12807 54.4812 12.8917 2.56311 -9.44106 -0.949033 -0.546037 3.79565 -5.1994 -71.3532 -3.98663 68.3597 2.29008 37.8223 0.87629 -17.8121 3.76394 2.75929 0.130443 -41.3734 -23.7803 
60.3665 91.4605 13.8476 -3.80072 -76.9302 -84.3641 -70.1915 0 88.8779 61.4933 78.406 31.2911 -1.0542 31.5517 -1.85616 -122.081 16.3006 148.713 -141.647 61.2115 171.924 1.47391 -7.50145 -26.4925 -117.589 25.6732 -31.8106 15.3864 9.3679 -58.8761 0.420957 0.000575395 0.35866 0.0904988 3.47053 14.4332 -90.3017 -41.3296 114.861 12.2624 -3.28607 74.8713 0.58676 0.000331183 0.0646652 -28.7094 13.444 97.0111 -1.56889 53.9722 10.1751 3.21025 -11.535 -1.09358 -0.980114 4.47204 -4.51213 -67.7526 -7.29819 64.7363 5.20447 56.9044 -1.33797 -9.73224 16.1863 1.24444 1.9869 -29.9371 -11.3291 
61.4537 92.6971 16.1811 50.9083 -74.968 -24.2216 -70.1915 0 88.8779 70.2607 77.0482 17.8283 -0.329584 27.5601 4.4876 -116.711 14.2811 141.77 -138.113 62.9166 171.635 1.41387 -7.79491 -25.6041 -116.122 29.5578 -35.3975 15.1264 8.76282 -60.0635 0.420957 0.000575395 0.35866 -0.18306 3.8821 20.9492 -92.428 -29.9282 103.56 -0.493886 0.252432 55.7891 0.58676 0.000331183 0.0646652 -33.6294 10.4455 90.9153 -2.61669 52.9706 3.89814 4.8425 -11.6328 -1.14149 -1.49825 3.88205 -1.18103 -60.0749 -9.12984 67.3881 27.1768 79.464 -6.1939 5.44328 32.4702 -4.3963 3.19503 -2.34558 -19.5399 
62.1689 93.8083 17.3129 73.5444 -66.1844 4.95208 -70.1915 0 88.8779 90.6605 75.7303 -3.56762 -0.416447 24.031 9.66253 -112.942 13.4341 138.934 -138.044 65.0824 175.06 0.943104 -10.7976 -27.5927 -109.632 33.0516 -45.4738 17.1044 9.79137 -60.523 0.420957 0.000575395 0.35866 -0.32637 4.03955 24.0448 -83.5037 -22.1379 95.1088 -8.84019 9.9492 41.4049 0.58676 0.000331183 0.0646652 -37.0738 11.793 85.3252 -3.56592 52.5463 -2.44927 6.96191 -11.1735 -1.19168 -1.31051 3.15542 -0.623278 -49.5134 -12.3307 73.2188 154.085 77.072 -125.87 8.64592 36.0678 -6.40112 2.43063 -11.0709 -15.5892 
62.9128 94.9094 17.7533 78.1602 -55.934 16.4853 -70.1915 0 88.8779 102.818 73.2245 -14.794 -0.218284 20.4854 13.7221 -110.368 13.091 137.287 -140.237 67.2185 179.953 0.36593 -13.6824 -29.8611 -100.205 35.3836 -61.9196 17.6668 10.4831 -59.7175 0.420957 0.000575395 0.35866 -0.386838 3.19727 28.9286 -69.9653 -18.7409 85.9143 -10.595 15.5956 34.3229 0.58676 0.000331183 0.0646652 -37.597 13.0233 79.3066 -4.3072 51.9117 -8.47219 8.74716 -10.0262 -1.23886 -1.37226 2.46376 1.06613 -36.5479 -18.6939 84.5781 162.407 66.4074 -138.928 5.31262 36.8159 -5.04268 2.53379 -4.88794 -16.935 
62.6757 95.7992 18.4092 78.5959 -47.2676 24.0981 -70.1915 0 88.8779 111.858 69.8109 -23.1413 -0.0879984 16.579 17.3386 -108.135 11.1002 135.547 -140.531 67.4497 -176.961 -0.0361679 -15.571 -30.4568 -92.7068 35.4038 -78.3059 18.1394 11.6047 -57.9189 0.420957 0.000575395 0.35866 -0.435596 2.37762 36.2314 -61.4608 -19.3601 75.301 -11.8238 19.2874 31.8978 0.58676 0.000331183 0.0646652 -36.2963 15.2215 72.7377 -4.68657 51.6097 -11.9913 9.31604 -9.79324 -1.26412 -0.97935 3.40475 -2.52848 -23.7122 -22.6809 102.303 162.326 65.4138 -130.726 11.0041 36.4395 -7.54472 4.23063 -1.56264 -26.6708 
61.4142 96.7048 20.0372 79.1505 -40.7164 31.7184 -70.1915 0 88.8779 118.973 65.8375 -30.8809 1.00559 12.65 20.1962 -106.568 7.86864 135.067 -140.544 65.6619 -174.87 -0.0661379 -16.4798 -27.8816 -89.4713 36.3751 -90.6068 18.0828 12.2775 -56.4086 0.420957 0.000575395 0.35866 -0.671211 2.40168 44.661 -57.6542 -20.9779 65.4033 -14.3427 22.5201 33.2964 0.58676 0.000331183 0.0646652 -35.0705 18.3968 64.7652 -4.82379 51.3403 -13.7222 8.65689 -9.5894 -1.23189 -0.421592 2.23222 -2.99673 -13.5831 -25.751 117.519 155.058 75.5094 -128.351 8.08965 36.2892 -6.20217 2.66108 1.34345 -16.6115 
60.141 98.0397 22.4596 78.2484 -38.5012 37.4821 -70.1915 0 88.8779 118.733 63.8814 -32.0516 3.07117 9.80536 23.8972 -104.641 4.71984 136.191 -138.99 63.0472 -174.299 -0.0902656 -17.4488 -25.6339 -87.9531 37.3331 -97.8663 16.4035 11.6134 -55.1423 0.420957 0.000575395 0.35866 -1.06925 3.08842 49.5442 -53.7067 -25.0087 59.164 -16.1417 24.8131 34.1842 0.58676 0.000331183 0.0646652 -32.283 24.2643 58.4924 -4.55431 49.1619 -14.2072 6.28231 -9.43315 -1.13122 -0.146049 -0.561868 2.03678 -4.38818 -27.8612 127.809 37.6755 80.1871 -8.02961 13.3299 34.7687 -8.27755 3.3418 2.68462 -21.3173 
59.6161 99.5062 25.1882 79.5867 -39.4255 43.6319 -70.1915 0 88.8779 119.029 62.672 -30.9714 4.42956 9.3317 23.642 -102.94 1.49579 137.19 -138.124 60.2864 -174.121 -0.0512074 -18.4492 -23.0589 -84.8331 38.2174 -103.365 15.521 11.3475 -54.2062 0.420957 0.000575395 0.35866 -1.33099 3.7184 50.3874 -49.8572 -32.0229 57.3239 -19.4183 29.9033 34.8734 0.58676 0.000331183 0.0646652 -30.6348 33.1637 56.0653 -3.70915 45.4796 -12.5111 4.6098 -10.496 -1.08806 0.640455 0.0259747 -3.39235 1.63052 -33.1259 125.044 -0.806931 48.303 36.0295 13.0836 33.3879 -7.89353 3.30482 13.7501 -11.4427 
60.2322 101.035 27.362 83.0222 -40.9726 48.3319 -70.1915 0 88.8779 118.132 62.7529 -29.3119 5.39854 10.4431 21.614 -101.194 -1.38982 137.211 -136.758 58.0055 -175.943 -0.120316 -18.707 -23.4563 -79.5829 36.6165 -109.401 13.1402 10.1229 -52.5939 0.420957 0.000575395 0.35866 -1.28425 3.80369 48.61 -52.8989 -39.1061 53.158 -22.9838 34.0792 36.7536 0.58676 0.000331183 0.0646652 -33.694 40.7892 57.9093 -3.4058 40.7141 -13.9653 4.50886 -9.03602 -1.02811 2.19522 -3.46627 -3.89711 5.8524 -35.807 100.041 -4.94615 16.3822 68.1743 14.9414 33.4292 -8.59612 -8.62744 44.3643 7.73406 
60.092 101.925 28.9309 85.0717 -42.3064 50.7276 -70.1915 0 88.8779 116.275 63.502 -27.7078 6.13698 11.0816 19.8825 -100.688 -2.99614 137.472 -137.114 56.3383 -177.364 -0.0897431 -17.7817 -24.8701 -77.4844 37.1727 -112.457 14.2734 10.8303 -53.0957 0.420957 0.000575395 0.35866 -1.27209 3.95486 47.1387 -60.54 -42.3848 45.3586 -23.0341 34.4649 36.5644 0.58676 0.000331183 0.0646652 -36.5842 44.5555 58.9129 -2.81126 37.0834 -11.3314 4.18472 -9.00143 -1.00963 1.97598 -2.63461 -4.7161 14.264 -32.3133 106.707 -5.38837 22.4211 58.0726 0.395719 40.9313 -3.21672 2.01534 5.42104 -16.8051 
59.6817 102.256 30.2727 83.4597 -40.033 50.8073 -70.1915 0 88.8779 116.145 61.8816 -28.0881 4.97466 9.73922 17.5127 -101.158 -4.05571 137.437 -137.494 55.1311 -177.641 -0.235898 -18.1691 -26.1644 -75.4693 36.5321 -113.467 15.2182 11.5704 -53.1291 0.420957 0.000575395 0.35866 -1.42536 4.29168 47.9298 -64.5273 -42.691 40.322 -24.9169 38.0663 36.6455 0.58676 0.000331183 0.0646652 -36.6815 43.8289 55.0521 -2.53023 34.8593 -9.75621 4.65127 -7.3691 -0.973058 1.71872 -0.99172 -6.97113 17.2979 -32.9862 118.448 -3.27884 27.3244 37.9063 -3.07303 42.4588 -1.5433 1.70667 -4.80437 -9.4026 
